<svg width="405" height="170" viewBox="0 0 405 170" fill="none" xmlns="http://www.w3.org/2000/svg">
<path d="M98 126.8C98.5 126.8 98.9 126.7 99.4 126.5C99.8 126.3 100.2 126.1 100.5 125.8C100.8 125.5 101 125.1 101.2 124.7C101.4 124.3 101.5 123.8 101.5 123.3C101.5 122.8 101.4 122.3 101.2 121.9C101 121.5 100.8 121.1 100.5 120.8C100.2 120.5 99.8 120.3 99.4 120.1C99 119.9 98.5 119.8 98 119.8C97.5 119.8 97.1 119.9 96.6 120.1C96.2 120.3 95.8 120.5 95.5 120.8C95.2 121.1 95 121.5 94.8 121.9C94.6 122.3 94.5 122.8 94.5 123.3C94.5 123.8 94.6 124.3 94.8 124.7C95 125.1 95.2 125.5 95.5 125.8C95.8 126.1 96.2 126.3 96.6 126.5C97 126.7 97.5 126.8 98 126.8ZM98 127.8C97.4 127.8 96.8 127.7 96.2 127.5C95.7 127.3 95.2 127 94.8 126.6C94.4 126.2 94.1 125.7 93.9 125.2C93.7 124.6 93.6 124 93.6 123.4C93.6 122.7 93.7 122.1 93.9 121.6C94.1 121 94.4 120.6 94.8 120.2C95.2 119.8 95.7 119.5 96.2 119.3C96.7 119.1 97.3 119 98 119C98.6 119 99.2 119.1 99.8 119.3C100.3 119.5 100.8 119.8 101.2 120.2C101.6 120.6 101.9 121.1 102.1 121.6C102.3 122.2 102.4 122.8 102.4 123.4C102.4 124.1 102.3 124.7 102.1 125.2C101.9 125.8 101.6 126.2 101.2 126.6C100.8 127 100.3 127.3 99.8 127.5C99.2 127.7 98.6 127.8 98 127.8Z" fill="white"/>
<path d="M110.2 120.1H107.3V119H114.3V120.1H111.3V127.6H110.2V120.1Z" fill="white"/>
<path d="M126.5 119H133.3V127.6H132.2V120.1H127.6V127.6H126.5V119Z" fill="white"/>
<path d="M141.5 120.1H138.6V119H145.6V120.1H142.7V127.6H141.5V120.1Z" fill="white"/>
<path d="M150.9 119H152V126.1V126.2L156.3 119H157.8V127.6H156.7V120.5V120.4L152.3 127.6H150.9V119Z" fill="white"/>
<path d="M170.4 127.6H163.9V119H165V126.6H169.2V119H170.3V126.6H171.5V129.2H170.4V127.6Z" fill="white"/>
<path d="M176.9 119H182.9V120.1H178V122.8H182V123.8H178V126.6H182.9V127.6H176.9V119Z" fill="white"/>
<path d="M193.5 126.1C194 126.1 194.5 126 194.9 125.9C195.3 125.8 195.6 125.6 195.9 125.3C196.2 125 196.4 124.7 196.5 124.4C196.6 124.1 196.7 123.7 196.7 123.3C196.7 122.9 196.6 122.5 196.5 122.2C196.4 121.9 196.1 121.6 195.9 121.3C195.6 121 195.3 120.8 194.9 120.7C194.5 120.6 194 120.5 193.5 120.5V126.1ZM192.4 120.4C191.9 120.4 191.4 120.5 191 120.6C190.6 120.7 190.3 120.9 190 121.2C189.7 121.5 189.5 121.8 189.4 122.1C189.3 122.4 189.2 122.8 189.2 123.2C189.2 123.6 189.3 124 189.4 124.3C189.5 124.6 189.8 124.9 190 125.2C190.3 125.5 190.6 125.7 191 125.8C191.4 125.9 191.9 126 192.4 126V120.4ZM192.4 127C191.7 127 191.1 126.9 190.6 126.7C190.1 126.5 189.6 126.2 189.2 125.9C188.8 125.6 188.5 125.2 188.3 124.7C188.1 124.2 188 123.7 188 123.2C188 122.7 188.1 122.2 188.3 121.7C188.5 121.2 188.8 120.8 189.2 120.5C189.6 120.2 190 119.9 190.6 119.7C191.1 119.5 191.7 119.4 192.4 119.4V118.4H193.5V119.4C194.2 119.4 194.8 119.5 195.3 119.7C195.8 119.9 196.3 120.2 196.7 120.5C197.1 120.8 197.4 121.2 197.6 121.7C197.8 122.2 197.9 122.7 197.9 123.2C197.9 123.7 197.8 124.2 197.6 124.7C197.4 125.2 197.1 125.6 196.7 125.9C196.3 126.2 195.9 126.5 195.3 126.7C194.8 126.9 194.2 127 193.5 127V128H192.4V127Z" fill="white"/>
<path d="M208.3 124L207.3 120H205.6L204.6 124H208.3ZM204.7 119H208.1L210.3 127.6H209.2L208.5 125.1H204.3L203.6 127.6H202.5L204.7 119Z" fill="white"/>
<path d="M219.3 126.6C219.9 126.6 220.4 126.5 220.8 126.2C221.1 125.9 221.3 125.5 221.3 125.1C221.3 124.7 221.1 124.3 220.8 124C220.5 123.7 220 123.6 219.3 123.6H216.8V126.8H219.3V126.6ZM215.7 119H221.8V120H216.8V122.3H219.3C219.8 122.3 220.2 122.4 220.6 122.5C221 122.6 221.3 122.8 221.6 123C221.9 123.2 222.1 123.5 222.2 123.8C222.3 124.1 222.4 124.5 222.4 124.9C222.4 125.3 222.3 125.6 222.2 126C222.1 126.3 221.9 126.6 221.6 126.8C221.3 127 221 127.2 220.6 127.3C220.2 127.4 219.8 127.5 219.3 127.5H215.7V119Z" fill="white"/>
<path d="M231.8 123.6C232.5 123.6 233 123.4 233.3 123.1C233.7 122.8 233.8 122.3 233.8 121.8C233.8 121.3 233.6 120.9 233.3 120.5C232.9 120.2 232.4 120 231.8 120H229.3V123.6H231.8ZM228.1 119H231.7C232.2 119 232.6 119.1 233 119.2C233.4 119.3 233.7 119.5 234 119.8C234.3 120.1 234.5 120.4 234.6 120.7C234.7 121 234.8 121.4 234.8 121.8C234.8 122.2 234.7 122.6 234.6 122.9C234.5 123.2 234.2 123.5 234 123.8C233.7 124.1 233.4 124.3 233 124.4C232.6 124.5 232.2 124.6 231.7 124.6H229.2V127.5H228.1V119Z" fill="white"/>
<path d="M240.5 119H241.6V126.1V126.2L246 119H247.4V127.6H246.3V120.5L246.4 120.4H246.3L242 127.6H240.5V119Z" fill="white"/>
<path d="M253.6 119H254.7V122.8H256.3L259 119H260.3L257.3 123.2L260.4 127.6H259.1L256.4 123.8H254.7V127.6H253.6V119Z" fill="white"/>
<path d="M265.7 119H266.8V126.1V126.2L271.2 119H272.6V127.6H271.5V120.5V120.4L267.2 127.6H265.7V119Z" fill="white"/>
<path d="M288.4 123.4L291 120.4L291.7 121.1L289.7 123.5L291.7 125.9L291 126.6L288.4 123.4ZM285.7 123.4L288.3 120.4L289 121.1L287 123.5L289 125.9L288.3 126.6L285.7 123.4Z" fill="white"/>
<path d="M301.3 127.8C300.7 127.8 300.1 127.7 299.5 127.5C299 127.3 298.5 127 298.1 126.6C297.7 126.2 297.4 125.7 297.2 125.2C297 124.6 296.9 124 296.9 123.4C296.9 122.7 297 122.1 297.2 121.6C297.4 121.1 297.7 120.6 298.1 120.2C298.5 119.8 299 119.5 299.5 119.3C300 119.1 300.6 119 301.3 119C301.7 119 302.1 119 302.5 119.1C302.9 119.2 303.2 119.3 303.5 119.5C303.8 119.6 304 119.8 304.2 120C304.4 120.2 304.6 120.4 304.8 120.6C305.2 121.1 305.4 121.6 305.6 122.2H304.5C304.3 121.8 304.1 121.5 303.8 121.2C303.7 121.1 303.5 120.9 303.4 120.8C303.2 120.7 303.1 120.6 302.9 120.5C302.7 120.4 302.5 120.3 302.2 120.3C301.9 120.2 301.7 120.2 301.4 120.2C300.9 120.2 300.5 120.3 300 120.5C299.6 120.7 299.2 120.9 298.9 121.2C298.6 121.5 298.4 121.9 298.2 122.3C298 122.7 297.9 123.2 297.9 123.7C297.9 124.2 298 124.7 298.2 125.1C298.4 125.5 298.6 125.9 298.9 126.2C299.2 126.5 299.6 126.7 300 126.9C300.4 127.1 300.9 127.2 301.4 127.2C301.7 127.2 302 127.2 302.3 127.1C302.6 127 302.8 126.9 303 126.8C303.2 126.7 303.4 126.6 303.6 126.4C303.8 126.3 303.9 126.1 304 126C304.3 125.7 304.5 125.3 304.7 124.9H305.8C305.6 125.5 305.3 126.1 304.9 126.6C304.7 126.8 304.5 127 304.3 127.2C304.1 127.4 303.8 127.6 303.6 127.7C303.3 127.9 303 128 302.6 128.1C302.1 127.8 301.7 127.8 301.3 127.8Z" fill="white"/>
<path d="M311.2 119H317.2V120.1H312.3V122.8H316.3V123.8H312.3V126.6H317.2V127.6H311.2V119Z" fill="white"/>
<path d="M326.9 126.6C327.5 126.6 328 126.5 328.3 126.2C328.6 125.9 328.8 125.6 328.8 125.2C328.8 124.8 328.6 124.4 328.3 124.1C328 123.8 327.5 123.7 326.9 123.7H324V126.6H326.9ZM326.9 122.6C327.4 122.6 327.7 122.5 328 122.2C328.3 122 328.4 121.6 328.4 121.3C328.4 121 328.3 120.6 328 120.4C327.7 120.2 327.4 120 326.9 120H324V122.6H326.9ZM322.9 119H327C327.4 119 327.7 119.1 328 119.2C328.3 119.3 328.6 119.5 328.8 119.7C329 119.9 329.2 120.1 329.3 120.4C329.4 120.7 329.5 121 329.5 121.3C329.5 121.7 329.4 122 329.3 122.2C329.2 122.4 329 122.6 328.9 122.8C328.7 123 328.5 123.1 328.3 123.2V123.3C328.6 123.4 328.9 123.5 329.1 123.6C329.3 123.7 329.5 123.9 329.6 124.2C329.8 124.5 329.9 124.8 329.9 125.3C329.9 125.7 329.8 126 329.7 126.3C329.6 126.6 329.4 126.9 329.1 127.1C328.9 127.3 328.5 127.5 328.2 127.6C327.8 127.7 327.4 127.8 326.9 127.8H322.9V119Z" fill="white"/>
<path d="M335.6 119H341.6V120.1H336.7V122.8H340.7V123.8H336.7V126.6H341.6V127.6H335.6V119Z" fill="white"/>
<path d="M350.9 123.6C351.6 123.6 352.1 123.4 352.5 123.1C352.9 122.8 353 122.3 353 121.8C353 121.3 352.8 120.9 352.5 120.5C352.1 120.2 351.6 120 350.9 120H348.4V123.6H350.9ZM347.3 119H350.9C351.4 119 351.8 119.1 352.2 119.2C352.6 119.3 352.9 119.5 353.2 119.8C353.5 120.1 353.7 120.4 353.8 120.7C353.9 121 354 121.4 354 121.8C354 122.2 353.9 122.6 353.8 122.9C353.7 123.2 353.4 123.5 353.2 123.8C352.9 124.1 352.6 124.3 352.2 124.4C351.8 124.5 351.4 124.6 350.9 124.6H348.4V127.5H347.3V119Z" fill="white"/>
<path d="M359.6 119H360.8V122.8H365.3V119H366.5V127.6H365.3V123.8H360.8V127.6H359.6V119Z" fill="white"/>
<path d="M377.6 124L376.6 120H374.9L373.9 124H377.6ZM374 119H377.4L379.6 127.6H378.5L377.8 125.1H373.6L372.9 127.6H371.8L374 119Z" fill="white"/>
<path d="M390.4 123.4V120.1H387.8C387.1 120.1 386.6 120.3 386.3 120.6C386 120.9 385.8 121.3 385.8 121.8C385.8 122.3 386 122.7 386.3 123C386.6 123.3 387.1 123.5 387.8 123.5H390.4V123.4ZM386.7 124.3C386.1 124.1 385.6 123.8 385.2 123.4C384.8 123 384.6 122.4 384.6 121.7C384.6 121.3 384.7 121 384.8 120.6C384.9 120.3 385.1 120 385.4 119.7C385.7 119.5 386 119.3 386.4 119.1C386.8 119 387.2 118.9 387.7 118.9H391.4V127.5H390.3V124.3H387.8L385.9 127.5H384.6L386.7 124.3Z" fill="white"/>
<path d="M399.7 125.8L401.7 123.4L399.7 121L400.4 120.3L403 123.3L400.4 126.3L399.7 125.8ZM397.1 125.8L399.1 123.4L397.1 121L397.8 120.3L400.4 123.3L397.8 126.3L397.1 125.8Z" fill="white"/>
<path d="M52.7 78.8C50.7 84 48.6 89.6 46.3 95.6C40.2 111.9 33.2 130.4 26.7 144.3C23.3 151.6 20.2 157.2 17.5 160.8C14 165.6 13.3 165.8 12.6 165.6C10.3 165.1 8.2 162.9 6.8 159.4C4.5 153.8 4 145.5 5.4 136.6C7.1 126 11.5 114.9 18 104.4C29.9 85.4 41.6 72 52.9 64.5C55.9 62.5 57.5 61.1 60 60C57.5 66.7 55 73 52.7 78.8ZM106.4 0.500015C106.4 0.500015 105.8 1.70002 105.3 2.80002C96.6 22.2 89 39.6 83.1 54.1C80.6 53.8 77.8 53.5 74.9 53.5C73 53.5 71.6 53.6 68.9 54.1C75.3 37.8 82.6 19.6 89.9 2.80002C91.4 -0.699982 85.4 0.500015 85.4 0.500015C85.4 0.500015 85 1.50002 84.4 2.80002C76.8 20 68.9 38.5 62 55.2C58.3 56.3 55.4 58.2 50.8 61.2C39.1 68.9 27 82.7 14.8 102.2C8 113.1 3.5 124.7 1.6 135.8C-2.80142e-06 145.5 0.6 154.3 3.2 160.7C5.2 165.4 8.1 168.3 11.7 169.2C12.1 169.3 13.7 169.3 14.1 169.3C16.8 169.3 19.7 167.2 22.9 162.9C25.7 159.1 28.9 153.5 32.5 145.8C39 131.8 46.2 113.3 52.4 96.9C54.6 91 64.1 66.2 67.3 58.3C70.8 57.4 72.5 57.2 74.9 57.2C77.2 57.2 79.5 57.4 81.6 57.6C76.6 69.9 73 79.8 71.1 86.5C71.1 86.5 70.8 87.6 70.6 88.3C69.8 90.9 76.3 90.9 76.8 89C77.2 87.4 77.4 86.7 77.5 86.3C82 70.9 93.9 40.4 110.7 2.70001C112.1 -0.299988 106.4 0.500015 106.4 0.500015Z" fill="#F4D58D"/>
<path d="M168.1 96.8C167.6 96.6 155.2 93 128.8 96.1C128.3 96.2 127.1 96.3 127.1 96.3C127.1 96.3 127.2 97.6 127.3 98.1C127.4 99.1 128.3 99.8 129.2 99.7C154.9 96.7 167 100.2 167.2 100.2C167.4 100.2 167.5 100.3 167.7 100.3C168.4 100.3 169.1 99.8 169.3 99C169.5 98.1 169 97.1 168.1 96.8Z" fill="#F4D58D"/>
<path d="M321 84.6C318.6 83.2 317.5 77.8 322 70.3C327.6 61.1 334.8 58.4 341.2 59.6L334.1 73.7C332.8 75.9 325.4 87.2 321 84.6ZM261.6 80.2C260.8 81.5 257.8 85.8 254 86.1C252.2 86.3 250.3 85.3 250.2 83.5C250.1 81.7 253.8 72.4 253.8 72.4C254.6 71.7 258.3 68.1 262 68.5C267.6 68.9 262.4 78.9 261.6 80.2ZM109.4 70.7C108.8 72.1 107.4 74.6 106.1 76.7C103.9 80 99.9 85.3 96 85.3C92.8 85.3 92.3 76.3 98.1 67.4C105 56.8 112.4 58.4 115.3 58.8C115.3 58.8 111.7 65.7 109.4 70.7ZM195.4 61.9C198 58.6 199.9 57.8 201.5 57.8C204.7 57.8 204.7 60.9 204.4 62.7C204.1 64.7 203.5 67.1 198.8 69.9C195.9 71.6 191.4 72.7 189.9 72.8C190 72.8 191 67.4 195.4 61.9ZM403.5 87.8C403.5 87.8 393.2 82.9 369.7 83.9C360.8 84.3 350.1 86.1 341.6 86.8C339.5 87 336.9 85.3 338.5 80.9C340.4 75.9 347.7 58.8 347.7 58.8C343.9 56.3 335.9 55.4 331.7 56.7C323.9 59.2 318 67.3 317 69.1C313.7 74.8 304.6 84.6 299.1 84.5C296.1 84.4 295.4 74.6 295.2 73C295.1 72.3 295 71.7 295 71.2C294.9 70.2 293.5 69.6 292.6 69.6H289.8C291.5 67.4 298.5 57.2 304.3 57.2C306.8 57.2 307.5 59.6 306.4 62.5C305.9 63.7 304.7 65.2 304 65.9C303.9 66.1 304 66.3 304.2 66.3C305.5 66.1 308.3 65.7 309.5 65.3C311.5 64.7 312.2 62.3 312.3 60.9C312.6 57.2 310.4 53.5 305.3 53.4C303.8 53.4 299.9 54.1 295.5 58C292.3 60.8 289.1 65.8 288.3 66.8L291.9 57.4C292.2 56.6 291.6 55.7 290.8 55.7H286.4L280.9 71.2C279.2 73.7 270.8 80.9 264.6 83.3C265.7 82.2 267.6 77.8 268 76.6C271.1 67.7 265.7 64.7 260.6 65.5C258.5 65.8 256.9 66.7 255.1 68.1L259 57.5C259.3 56.7 258.7 55.8 257.8 55.7C256 55.6 253.4 55.8 253.4 55.8C253.4 55.8 248 70.8 246.1 75.9C244.5 80.1 237.7 85.7 233.9 85.3C232.6 85.2 232.5 82.9 233.3 80.3C235.6 72.9 241.2 57.4 241.2 57.4C241.5 56.5 240.8 55.7 239.9 55.7H237.1H236.1C236.1 55.7 235.9 56.3 235.8 56.6L231 68.8H220.1L224.1 57.4C224.4 56.5 223.7 55.7 222.8 55.7H219.6H218.6C218.6 55.7 218.4 56.4 218.3 56.6L214.7 67C214.3 69 205.9 77.7 202.8 80.2C198.3 83.8 191.8 87.2 189.2 84.6C187.1 82.5 188.7 78.3 189.2 76.6C189.2 76.6 194.7 75.1 197.9 73.8C202.9 71.9 207.3 68.3 208.1 62.7C208.6 58.7 206.6 55 202.1 54.5C198.9 54.1 193.4 54.5 189.2 60.3C186.2 64.4 183.6 71.3 183.4 72.4C182.8 73.6 181.8 74.9 179.5 77.5C176.3 81.3 172.8 85.2 170.6 85.2C167.4 85.2 168.2 82.3 168.4 81.4L178.7 57.6C179 56.7 178.4 55.8 177.4 55.8H173.7H172.7C172.7 55.8 172.5 56.4 172.4 56.7C171.6 59 168.4 65.4 167.4 67.8C165.3 72.6 162.5 75.8 161.7 77.1C160.9 78.4 160 79.5 158.9 80.7C157.9 81.8 153.6 86.2 151 85.3C149.4 84.8 150 82.6 150.2 81.9L160.6 57.6C160.9 56.7 160.3 55.8 159.3 55.8H156C155.4 55.8 154.9 56.2 154.7 56.7C153.8 59.4 149.4 67.6 147.6 71.5C147.2 72.3 145 76.3 144.2 77.6C143.4 78.9 142.3 80 141.4 81.2C139.7 83.2 130.8 90.1 132.8 82.4L143.7 57.7C144 56.8 143.4 55.9 142.4 55.9H138.4C137.9 55.9 137.4 56.2 137.2 56.7C136.7 57.8 135.5 60 134.7 61.6C130.4 69.5 126.1 75.3 118.5 82.1C115.4 84.8 113.3 86 112.3 85.4C110.7 84.3 111.7 82 111.8 81.5L122.4 57.9C116.1 54.2 108.2 54.7 103.1 56.9C100.2 58.2 97.2 60.8 95.2 63.1C93.1 65.4 88 73.3 88.1 80.3C88.1 81.5 88.3 82.7 88.7 83.9C89.1 85 89.7 86 90.4 86.9C91.1 87.8 92 88.4 93 88.9C94 89.4 95.1 89.6 96.3 89.6C100.7 89.6 104.5 84.3 105.9 82.3C105.8 83.7 105.5 89.6 110.7 89.7C119.2 89.8 127.3 77.6 128.4 76.3C127.9 77.7 127.4 79.1 127.1 80.3C126.7 82 126.5 83.3 126.5 84.3C126.5 86.2 127 87.6 128 88.5C129 89.4 130.4 89.9 132.3 89.8C139.3 89.7 143.1 83.8 145.7 80.5C145.4 81.6 145.2 82.7 145.1 83.8C145 84.9 145.2 85.8 145.5 86.7C145.9 87.6 146.4 88.2 147.2 88.7C148 89.2 149 89.4 150.3 89.3C156.7 89.1 161 83.2 163.6 80C163.3 81.4 163.1 82.6 163.1 83.7C163.1 84.8 163.2 85.8 163.6 86.6C164 87.4 164.6 88 165.4 88.5C166.2 89 167.3 89.2 168.7 89.2C174.6 89.2 182.8 78.7 183.7 77.5C183.8 78.9 180.4 89.4 190.9 89.5C200.5 89.6 211.3 77.4 213.2 74.2L208.7 87.1C208.6 87.5 208.3 88.9 210 88.9H213.1C213.9 88.9 214.5 88.5 214.7 88L219.3 73.2H230.3L228.7 78.1C228.2 79.9 227 84.5 228.5 86.7C229.2 87.7 230.1 89 232.3 89C238 89.2 243.3 84.5 244.6 83.1C244.6 83.3 244.6 83.6 244.6 83.8C244.8 87.6 248.4 89.7 254 89.5C262.7 89.2 272.1 84.4 279.5 77L276.1 86.9C275.8 87.8 276.4 88.7 277.4 88.7H280.8C281.5 88.7 282.2 88.2 282.4 87.6C284 83 287 74 287 74H288.5C291.7 73.9 291.3 88.8 297.3 88.9C301.3 89 304.8 86.6 306.3 85.7C309.6 83.7 314 78.7 315.2 76.3C313.1 80.4 315.2 89.7 321.3 89.8C327.9 89.9 331.2 85 332.6 83C331.6 88.4 336.3 91.3 342.1 90.4C347.1 89.6 362.8 87.6 369.9 87.4C393.1 86.8 402.3 91.1 402.5 91.1C402.6 91.1 402.7 91.1 402.8 91.1C403.6 91.1 403.8 90.4 404.1 89.5C404.2 88.4 403.5 87.8 403.5 87.8Z" fill="#F4D58D"/>
</svg>
